<svg xmlns="http://www.w3.org/2000/svg" height="896" preserveAspectRatio="none" style="display: block;" version="1.1" viewBox="0 0 2048 1509" width="1216">
<path d="M 0 0 L 2048 0 L 2048 1509 L 0 1509 L 0 0 z" fill="rgb(255,255,255)" transform="translate(0,0)"></path>
<path d="M 907.396 1103.5 C 907.12 1059.64 907.074 1015.79 907.258 971.929 C 907.299 960.108 907.148 947.759 907.484 936.036 C 907.903 921.4 905.749 899.786 916.114 888.254 C 925.445 877.872 945.642 879.876 958.444 879.873 L 1003.55 879.87 L 1148.77 879.815 C 1160.4 879.919 1167.18 881.679 1175.67 889.886 C 1186.34 900.205 1183.66 921.103 1183.69 934.986 L 1183.76 987.176 C 1183.78 1033.94 1183.86 1080.77 1183.72 1127.47 C 1183.67 1145.02 1176.14 1159.35 1157.56 1161.04 C 1138.04 1162.83 1116.78 1162.03 1097.15 1162.01 L 973.064 1161.89 C 973.099 1174.89 973.984 1245.44 971.966 1252.86 L 972.089 1269.97 C 977.174 1305.66 959.577 1327.72 922.787 1323.95 C 904.707 1324.4 884.863 1323.94 866.653 1323.87 C 862.449 1324.65 829.814 1324.22 823.741 1324.19 C 809.926 1363.32 797.383 1390.47 766.886 1420 C 728.656 1457.02 673.023 1479.55 619.612 1477.98 C 565.697 1475.9 514.741 1452.79 477.649 1413.61 C 437.402 1370.82 421.476 1319.71 423.144 1261.79 C 417.814 1260.6 394.519 1260.99 387.583 1261 L 286.618 1261.07 C 264.894 1261.08 234.948 1264.53 216.398 1253.16 C 187.81 1235.63 194.236 1198.56 194.279 1169 L 194.401 1088.94 L 194.515 1035.61 C 194.604 1014.28 191.988 998.776 207.206 981.783 C 224.506 962.464 243.197 967.076 266.027 965.535 L 268.141 966.015 C 279.121 965.929 291.601 966.346 302.404 965.78 L 303.295 965.118 L 303.963 964.991 L 304.895 965.358 C 312.442 966.817 344.832 965.933 355.022 965.914 L 479.919 966.013 C 498.849 966.017 563.011 964.314 576.362 968.646 C 578.051 969.72 578.305 969.653 580.297 970.155 C 591.816 977.43 597.941 982.005 604.859 993.747 C 607.882 984.085 605.044 962.778 605.925 951.88 C 607.612 931.028 598.591 897.323 619.931 884.722 C 624.3 882.159 629.188 880.609 634.236 880.187 C 652.317 878.719 852.317 879.004 860.957 881.502 C 866.957 883.236 875.506 889.478 878.309 895.229 C 880.726 900.188 881.641 906.459 882.011 911.905 C 883.488 933.625 882.273 956.174 882.258 977.963 L 882.118 1103.57 L 907.396 1103.5 z" fill="rgb(159,164,184)" transform="translate(0,0)"></path>
<path d="M 303.963 964.991 L 304.895 965.358 C 312.442 966.817 344.832 965.933 355.022 965.914 L 479.919 966.013 C 498.849 966.017 563.011 964.314 576.362 968.646 C 578.051 969.72 578.305 969.653 580.297 970.155 C 591.816 977.43 597.941 982.005 604.859 993.747 C 605.961 996.196 605.913 996.032 607.884 997.888 C 611.087 1019.83 609.706 1035.86 610.067 1057.66 C 610.625 1091.26 609.158 1126.49 610.153 1159.91 L 609.915 1162.11 C 610.291 1212.81 619.752 1261.1 550.821 1261.45 L 462.917 1261.21 C 456.928 1261.18 428.702 1260.67 425.098 1261.63 L 423.144 1261.79 C 417.814 1260.6 394.519 1260.99 387.583 1261 L 286.618 1261.07 C 264.894 1261.08 234.948 1264.53 216.398 1253.16 C 187.81 1235.63 194.236 1198.56 194.279 1169 L 194.401 1088.94 L 194.515 1035.61 C 194.604 1014.28 191.988 998.776 207.206 981.783 C 224.506 962.464 243.197 967.076 266.027 965.535 L 268.141 966.015 C 279.121 965.929 291.601 966.346 302.404 965.78 L 303.295 965.118 L 303.963 964.991 z" fill="rgb(93,116,160)" transform="translate(0,0)"></path>
<path d="M 285.147 1103.5 C 291.296 1101.9 359.538 1102.55 369.221 1102.55 L 448.907 1102.67 C 462.422 1102.69 476.162 1102.61 489.681 1102.87 C 493.702 1102.94 493.609 1103.07 495.64 1105.32 C 492.4 1106.01 487.193 1105.98 483.778 1105.96 C 418.412 1105.7 352.967 1106.49 287.626 1105.37 C 287.626 1105.37 285.365 1103.67 285.147 1103.5 z" fill="rgb(255,255,255)" transform="translate(0,0)"></path>
<path d="M 284.85 1062.41 C 291.258 1061.39 313.057 1061.83 320.26 1061.85 L 387.231 1061.87 L 470.833 1061.81 C 477.313 1061.81 504.117 1061.37 509.356 1062.27 L 510.613 1064.64 C 494.772 1065.51 473.97 1064.91 457.811 1064.88 L 366.348 1064.77 L 311.46 1064.73 C 303.891 1064.74 295.748 1065.21 288.28 1064.74 C 285.796 1064.58 286.391 1064.45 284.85 1062.41 z" fill="rgb(255,255,255)" transform="translate(0,0)"></path>
<path d="M 285.037 1143.39 C 296.56 1142.15 382.411 1141.53 392.518 1143.73 L 393.769 1145.96 C 371.165 1146.69 347.013 1145.8 324.297 1146.17 C 317.992 1146.28 291.138 1146.55 286.204 1145.41 L 285.037 1143.39 z" fill="rgb(255,255,255)" transform="translate(0,0)"></path>
<path d="M 609.915 1162.11 L 674.753 1161.86 L 674.73 1249.35 C 674.712 1282.53 667.83 1321.97 716.37 1324.23 C 734.332 1325.07 752.739 1324.32 770.776 1324.29 C 787.747 1324.1 804.72 1324.17 821.69 1324.5 C 816.771 1338.11 811.865 1352.27 805.338 1365.18 C 785.374 1404.66 750.074 1438.21 710.095 1456.94 C 662.203 1479.6 607.199 1481.99 557.522 1463.58 C 506.799 1445.09 467.15 1410.14 444.093 1360.98 C 427.158 1324.86 425.713 1300.27 425.098 1261.63 C 428.702 1260.67 456.928 1261.18 462.917 1261.21 L 550.821 1261.45 C 619.752 1261.1 610.291 1212.81 609.915 1162.11 z" fill="rgb(255,255,255)" transform="translate(0,0)"></path>
<path d="M 601.689 1308.89 C 640.253 1304.94 674.806 1332.78 679.155 1371.3 C 683.505 1409.82 656.029 1444.66 617.556 1449.41 C 592.31 1452.52 567.336 1441.84 552.156 1421.43 C 536.975 1401.02 533.927 1374.03 544.174 1350.75 C 554.421 1327.46 576.384 1311.48 601.689 1308.89 z" fill="rgb(159,164,184)" transform="translate(0,0)"></path>
<path d="M 600.572 1310.92 C 638.174 1306.36 672.379 1333.08 677.067 1370.66 C 681.754 1408.25 655.156 1442.55 617.587 1447.36 C 579.836 1452.2 545.339 1425.44 540.629 1387.68 C 535.919 1349.91 562.79 1315.5 600.572 1310.92 z" fill="rgb(255,255,255)" transform="translate(0,0)"></path>
<path d="M 605.05 1341.82 C 625.051 1339.01 643.611 1352.76 646.731 1372.72 C 649.85 1392.68 636.375 1411.44 616.468 1414.86 C 603.321 1417.12 589.975 1412.12 581.548 1401.78 C 573.122 1391.44 570.92 1377.36 575.789 1364.94 C 580.657 1352.52 591.84 1343.68 605.05 1341.82 z" fill="rgb(159,164,184)" transform="translate(0,0)"></path>
<path d="M 605.247 1343.81 C 624.121 1341.09 641.691 1354 644.754 1372.82 C 647.817 1391.64 635.246 1409.44 616.485 1412.86 C 604.035 1415.12 591.332 1410.49 583.266 1400.74 C 575.199 1390.99 573.027 1377.64 577.585 1365.83 C 582.143 1354.03 592.721 1345.61 605.247 1343.81 z" fill="rgb(255,255,255)" transform="translate(0,0)"></path>
<path d="M 622.033 1357.07 C 631.119 1359.16 636.046 1370.43 636.093 1379 C 636.134 1386.35 633.13 1393.38 627.797 1398.43 C 625.095 1400.98 623.94 1402.53 620.865 1404.48 C 620.234 1402.5 619.57 1401.79 621.47 1400.53 C 634.593 1391.85 638.002 1374.4 627.073 1362.51 C 625.012 1360.26 623.439 1359.87 622.033 1357.07 z" fill="rgb(254,226,13)" transform="translate(0,0)"></path>
<path d="M 607.884 997.888 C 608.008 990.515 607.368 973.479 608.248 967.586 C 610.329 966.008 612.463 966.004 615.102 965.604 L 615.685 964.363 C 613.037 964.747 611.766 964.895 609.098 964.939 C 606.939 961.789 608.317 932.665 607.836 926.51 C 603.635 872.782 637.259 882.059 679.227 882.048 L 772.855 882.053 L 829.598 882.078 C 852.916 882.088 878.538 878.874 880.099 911.051 C 881.097 931.618 880.527 952.328 880.486 972.93 L 880.026 1103.21 L 760.6 1104.23 C 736.21 1104.3 703.171 1098.28 685.079 1116.3 C 672.985 1128.34 674.508 1144.31 674.719 1159.91 L 610.153 1159.91 C 609.158 1126.49 610.625 1091.26 610.067 1057.66 C 609.706 1035.86 611.087 1019.83 607.884 997.888 z" fill="rgb(255,255,255)" transform="translate(0,0)"></path>
<path d="M 779.706 966.208 C 826.355 961.742 831.496 1029.18 782.255 1030.62 C 778.226 1029.89 761.337 1022.66 763.54 1022.76 L 763.28 1023.04 C 763.393 1025.04 765.196 1025.6 765.604 1028.49 C 763.601 1027.67 755.007 1012.2 754.354 1009.74 C 748.334 987.153 759.507 972.765 779.706 966.208 z" fill="rgb(159,164,184)" transform="translate(0,0)"></path>
<path d="M 778.713 968.588 C 795.15 965.211 811.194 975.861 814.463 992.32 C 817.733 1008.78 806.977 1024.75 790.497 1027.91 C 774.169 1031.05 758.374 1020.41 755.135 1004.1 C 751.896 987.797 762.427 971.934 778.713 968.588 z" fill="rgb(255,255,255)" transform="translate(0,0)"></path>
<path d="M 784.355 994.615 C 786.479 994.374 788.454 995.74 788.977 997.813 C 789.501 999.886 788.411 1002.03 786.427 1002.82 C 784.883 1003.44 783.121 1003.11 781.91 1001.97 C 780.699 1000.83 780.259 999.089 780.784 997.511 C 781.309 995.933 782.702 994.803 784.355 994.615 z" fill="rgb(9,8,97)" transform="translate(0,0)"></path>
<path d="M 785.662 1063.72 C 789.76 1066.53 790.861 1073.75 792.398 1078.55 C 788.412 1076.1 786.844 1068.2 785.662 1063.72 z" fill="rgb(224,225,231)" transform="translate(0,0)"></path>
<path d="M 627.331 962.506 C 629.425 962.175 640.397 961.047 641.533 962.527 C 641.532 962.892 641.565 962.644 641.323 963.362 C 639.26 963.428 627.339 965.047 626.699 963.47 C 626.742 963.097 627.072 962.814 627.331 962.506 z" fill="rgb(224,225,231)" transform="translate(0,0)"></path>
<path d="M 793.865 1087.6 C 797.122 1091.24 796.502 1097.09 796.539 1102.25 C 793.631 1101.75 793.829 1090.4 793.865 1087.6 z" fill="rgb(224,225,231)" transform="translate(0,0)"></path>
<path d="M 699.356 975.91 C 704.972 976.694 709.332 979.686 713.644 983.284 L 712.388 983.066 C 708.939 982.497 701.807 978.265 699.356 975.91 z" fill="rgb(224,225,231)" transform="translate(0,0)"></path>
<path d="M 651.896 963.349 C 657.808 963.128 661.784 963.276 667.064 965.696 C 662.149 966.331 656.253 965.772 651.896 963.349 z" fill="rgb(224,225,231)" transform="translate(0,0)"></path>
<path d="M 676.296 968.231 C 682.195 968.452 685.705 968.879 690.15 972.814 C 685.45 971.927 680.486 970.552 676.296 968.231 z" fill="rgb(224,225,231)" transform="translate(0,0)"></path>
<path d="M 721.947 988.691 C 727.626 990 729.762 992.12 734.039 996.21 C 728.278 994.637 726.691 992.458 721.947 988.691 z" fill="rgb(224,225,231)" transform="translate(0,0)"></path>
<path d="M 775.058 1044.39 C 779.353 1046.7 779.644 1048.92 781.913 1053.42 C 777.279 1051.49 777.456 1049.61 775.058 1044.39 z" fill="rgb(224,225,231)" transform="translate(0,0)"></path>
<path d="M 743.026 1005.08 C 744.845 1005.34 746.97 1007.35 748.25 1008.69 C 745.484 1010.05 743.031 1007.99 743.026 1005.08 z" fill="rgb(224,225,231)" transform="translate(0,0)"></path>
<path d="M 750.448 1030.28 C 751.045 1029.77 751.398 1029.28 752.136 1029.24 C 752.787 1029.83 751.834 1030.81 751.617 1031.39 C 749.183 1033.78 750.168 1031.61 750.448 1030.28 z" fill="rgb(9,8,97)" transform="translate(0,0)"></path>
<path d="M 866.653 1323.87 C 863.505 1322.86 829.017 1322.76 823.586 1322.84 C 800.911 1323.13 778.249 1324.01 755.395 1323.57 C 734.146 1323.16 710.433 1326.5 691.895 1313.55 C 671.203 1298.44 676.208 1254.54 675.421 1231.15 C 674.666 1208.69 675.383 1184.01 676.922 1161.57 C 677.505 1152.5 677.5 1144.39 678.601 1135.44 C 680.912 1117.94 696.691 1111.26 711.483 1107.77 C 726.361 1104.25 848.899 1104.36 853.157 1107.55 L 853.443 1111.83 C 853.341 1175.19 906.857 1224.38 968.445 1227.54 C 971.362 1231.3 967.499 1247.13 971.966 1252.86 L 972.089 1269.97 C 977.174 1305.66 959.577 1327.72 922.787 1323.95 C 904.707 1324.4 884.863 1323.94 866.653 1323.87 z" fill="rgb(68,90,135)" transform="translate(0,0)"></path>
<path d="M 972.089 1269.97 C 977.174 1305.66 959.577 1327.72 922.787 1323.95 C 928.306 1320.85 933.04 1321.73 939.479 1320.68 C 956.374 1317.94 966.509 1306.67 968.886 1290 C 970.033 1281.96 967.249 1276.99 972.089 1269.97 z" fill="rgb(93,116,160)" transform="translate(0,0)"></path>
<path d="M 853.443 1111.83 C 853.765 1110.34 853.719 1108.42 855.043 1107.58 C 858.263 1105.54 922.125 1105.97 929.961 1106.45 C 934.942 1106.76 939.94 1107.4 944.733 1108.83 C 953.635 1111.48 960.323 1116.91 964.675 1125.14 C 967.163 1129.94 968.74 1135.16 969.326 1140.54 C 970.292 1149.02 970.52 1223.49 968.445 1227.54 C 906.857 1224.38 853.341 1175.19 853.443 1111.83 z" fill="rgb(254,226,13)" transform="translate(0,0)"></path>
<path d="M 932.726 882.106 C 1001.98 881.111 1071.59 883.028 1140.88 881.818 C 1162.64 881.438 1181.51 885.501 1181.65 911.909 C 1182.05 984.41 1182.11 1056.96 1181.63 1129.46 C 1181.51 1147.34 1174.24 1155.42 1157.47 1159.52 C 1144.16 1160.81 1111.09 1159.92 1096.17 1159.92 L 972.933 1159.97 C 973.017 1155.98 973.045 1151.98 973.018 1147.99 C 972.87 1134.53 970.389 1124 960.512 1114.14 C 946.993 1100.65 927.083 1103.11 909.107 1103.51 L 909.182 976.621 C 909.201 958.81 909.169 941.008 909.542 923.201 C 909.954 903.506 909.46 887.127 932.726 882.106 z" fill="rgb(255,255,255)" transform="translate(0,0)"></path>
<path d="M 1380.75 194.359 L 1382.05 194.434 C 1407.03 199.311 1443.14 185.355 1460.72 210.109 C 1464.43 215.336 1467.38 222.013 1468.3 228.545 C 1468.84 245.414 1470.34 285.84 1468.53 300.724 L 1469.13 302.765 L 1468.75 304.097 C 1462.62 328.069 1477.34 368.496 1448.47 386.151 C 1440.57 390.98 1432.54 390.77 1424.56 394.028 L 1422.26 394.139 C 1417.73 394.701 1414.99 394.531 1410.56 394.77 C 1410.61 399.586 1409.69 414.462 1411.81 416.908 C 1410.77 417.104 1409.88 417.274 1408.82 417.415 L 1409.09 488.492 L 1409 490.071 C 1376.23 491.26 1339.66 490.529 1306.49 490.53 L 1092.94 490.187 L 268.147 490.86 C 268.143 528.283 269.013 569.912 267.809 606.996 L 266.115 607.313 C 264.555 565.963 266.485 520.535 265.89 478.741 C 265.776 436.715 265.995 394.879 265.867 352.833 C 265.786 326.174 283.416 302.697 311.02 300.993 C 340.548 299.169 370.838 300.363 400.494 300.274 L 589.393 300.011 L 880.602 300.139 L 974.946 300.537 C 994.686 300.576 1016.26 300.067 1035.77 300.824 C 1021.57 293.338 1012.11 284.503 1014.1 267.683 C 1019.01 226.055 1080.03 237.065 1074.96 276.069 C 1073.58 286.64 1063.93 294.4 1055.4 299.906 C 1061.52 300.698 1090.7 300.273 1098.19 300.156 C 1124.24 299.75 1152.03 300.78 1177.78 299.779 C 1178.45 284.391 1176.35 236.785 1178.46 225.704 C 1179.41 220.626 1181.43 215.809 1184.4 211.581 C 1198.35 191.66 1223 195.152 1244.15 195.158 L 1338.19 195.192 C 1348.12 195.194 1372.28 196.227 1380.75 194.359 z" fill="rgb(255,255,255)" transform="translate(0,0)"></path>
<path d="M 1380.75 194.359 L 1382.05 194.434 C 1407.03 199.311 1443.14 185.355 1460.72 210.109 C 1464.43 215.336 1467.38 222.013 1468.3 228.545 C 1468.84 245.414 1470.34 285.84 1468.53 300.724 L 1469.13 302.765 L 1468.75 304.097 C 1462.62 328.069 1477.34 368.496 1448.47 386.151 C 1440.57 390.98 1432.54 390.77 1424.56 394.028 L 1422.26 394.139 C 1417.91 393.871 1416.28 393.933 1412.01 394.025 C 1398.5 394.316 1382.98 393.403 1369.47 394.194 L 1231.95 394.096 C 1214.26 394.069 1201.64 395.242 1187.87 381.589 C 1184.69 378.353 1179.49 370.974 1178.88 366.389 C 1176.27 346.563 1177.83 322.4 1177.96 302.395 L 1177.78 299.779 C 1178.45 284.391 1176.35 236.785 1178.46 225.704 C 1179.41 220.626 1181.43 215.809 1184.4 211.581 C 1198.35 191.66 1223 195.152 1244.15 195.158 L 1338.19 195.192 C 1348.12 195.194 1372.28 196.227 1380.75 194.359 z" fill="rgb(68,90,135)" transform="translate(0,0)"></path>
<path d="M 1231.14 260.473 C 1248.61 259.672 1398 259.604 1401.31 261.141 L 1401.67 263.279 C 1383.33 263.554 1232.67 263.479 1230.66 262.431 L 1231.14 260.473 z" fill="rgb(255,255,255)" transform="translate(0,0)"></path>
<path d="M 1229.43 291.513 C 1230.03 291.427 1230.63 291.35 1231.23 291.284 C 1245.29 289.683 1363.89 290.16 1367.33 292.901 C 1364.65 293.678 1334.17 294.003 1330.38 293.517 C 1314.72 291.506 1238.9 296.267 1229.43 291.513 z" fill="rgb(255,255,255)" transform="translate(0,0)"></path>
<path d="M 1231.3 322.459 C 1251.24 321.338 1280.73 322.853 1301.44 322.664 C 1302.12 322.658 1302.85 324.008 1303.22 324.559 C 1290.84 325.984 1246.73 324.9 1232.14 324.758 C 1231.55 324.752 1231.38 322.978 1231.3 322.459 z" fill="rgb(224,225,231)" transform="translate(0,0)"></path>
<path d="M 1035.77 300.824 C 1021.57 293.338 1012.11 284.503 1014.1 267.683 C 1019.01 226.055 1080.03 237.065 1074.96 276.069 C 1073.58 286.64 1063.93 294.4 1055.4 299.906 C 1061.52 300.698 1090.7 300.273 1098.19 300.156 C 1124.24 299.75 1152.03 300.78 1177.78 299.779 L 1177.96 302.395 C 1121.16 301.465 1061.67 302.895 1004.51 302.835 L 610.201 302.326 L 408.396 302.666 L 347.459 302.609 C 325.583 302.524 299.846 298.989 283.005 315.463 C 269.157 329.009 268.196 339.525 268.027 358.117 L 268.1 489.003 C 282.161 487.96 300.68 488.457 315.174 488.465 L 393.004 488.48 L 638.65 488.489 L 1409.09 488.492 L 1409 490.071 C 1376.23 491.26 1339.66 490.529 1306.49 490.53 L 1092.94 490.187 L 268.147 490.86 C 268.143 528.283 269.013 569.912 267.809 606.996 L 266.115 607.313 C 264.555 565.963 266.485 520.535 265.89 478.741 C 265.776 436.715 265.995 394.879 265.867 352.833 C 265.786 326.174 283.416 302.697 311.02 300.993 C 340.548 299.169 370.838 300.363 400.494 300.274 L 589.393 300.011 L 880.602 300.139 L 974.946 300.537 C 994.686 300.576 1016.26 300.067 1035.77 300.824 z" fill="rgb(177,181,196)" transform="translate(0,0)"></path>
<path d="M 1037.49 243.636 C 1052.57 239.892 1067.84 249.012 1071.7 264.062 C 1075.56 279.112 1066.56 294.457 1051.54 298.431 C 1036.35 302.448 1020.8 293.325 1016.9 278.112 C 1013 262.899 1022.24 247.421 1037.49 243.636 z" fill="rgb(255,255,255)" transform="translate(0,0)"></path>
<path d="M 1041.54 256.216 C 1049.78 254.898 1057.53 260.478 1058.9 268.705 C 1060.26 276.932 1054.72 284.716 1046.51 286.127 C 1038.22 287.548 1030.36 281.958 1028.99 273.666 C 1027.61 265.374 1033.24 257.545 1041.54 256.216 z" fill="rgb(93,116,160)" transform="translate(0,0)"></path>
<path d="M 1369.47 394.194 C 1382.98 393.403 1398.5 394.316 1412.01 394.025 C 1416.28 393.933 1417.91 393.871 1422.26 394.139 C 1417.73 394.701 1414.99 394.531 1410.56 394.77 C 1410.61 399.586 1409.69 414.462 1411.81 416.908 C 1410.77 417.104 1409.88 417.274 1408.82 417.415 C 1408.23 410.68 1408.43 401.873 1408.35 394.921 C 1399.23 394.826 1377.48 395.374 1369.47 394.194 z" fill="rgb(177,181,196)" transform="translate(0,0)"></path>
<path d="M 353.052 357.061 C 373.632 352.528 393.994 365.523 398.55 386.098 C 403.107 406.672 390.135 427.049 369.565 431.628 C 348.963 436.215 328.547 423.218 323.983 402.611 C 319.419 382.003 332.44 361.601 353.052 357.061 z" fill="rgb(159,164,184)" transform="translate(0,0)"></path>
<path d="M 352.697 359.222 C 365.396 356.122 378.779 360.118 387.7 369.673 C 396.62 379.228 399.689 392.853 395.726 405.31 C 391.762 417.766 381.384 427.113 368.582 429.756 C 349.274 433.743 330.331 421.525 325.999 402.291 C 321.667 383.056 333.544 363.898 352.697 359.222 z" fill="rgb(255,255,255)" transform="translate(0,0)"></path>
<path d="M 769.65 366.292 C 776.71 371.028 768.333 376.549 777.487 376.034 C 781.388 375.815 786.503 376.552 790.235 375.542 C 791.94 375.08 789.669 367.294 791.967 366.92 C 795.927 366.866 793.571 373.41 795.166 375.377 C 796.573 377.07 803.13 375.19 804.179 376.756 C 805.622 378.909 804.993 388.098 804.976 390.482 C 804.913 399.173 805.176 407.403 804.982 416.03 C 804.951 417.408 803.686 418.194 802.808 418.808 C 792.257 418.917 768.63 419.552 758.941 418.106 C 755.752 417.63 756.992 381.462 756.986 376.041 C 771.737 375.826 767.587 378.535 769.65 366.292 z" fill="rgb(93,116,160)" transform="translate(0,0)"></path>
<path d="M 760.802 415.191 C 760.584 404.607 759.97 390.263 761.146 379.641 C 761.23 378.879 767.398 379.269 768.088 379.255 L 768.754 379.235 C 770.241 379.405 771.729 379.558 773.218 379.697 C 776.2 379.532 786.687 378.595 789.703 380.197 C 790.103 380.262 790.556 382.182 790.366 382.375 C 789.131 383.635 792.391 389.746 793.507 388.611 C 796.475 384.839 790.585 379.158 798.705 379.218 C 803.644 379.254 801.843 388.17 801.93 391.89 C 802.101 399.217 802.006 407.779 801.909 415.182 C 788.208 415.385 774.504 415.388 760.802 415.191 z" fill="rgb(255,255,255)" transform="translate(0,0)"></path>
<path d="M 768.754 379.235 C 770.241 379.405 771.729 379.558 773.218 379.697 C 772.845 392.002 769.142 391.436 768.754 379.235 z" fill="rgb(93,116,160)" transform="translate(0,0)"></path>
<path d="M 944.725 363.252 C 949.872 366.169 947.768 371.031 947.793 377.116 L 978.92 377.108 C 979.058 390.352 979.133 405.706 978.819 418.907 L 965.25 418.593 C 953.612 418.482 941.613 418.694 930.077 418.424 C 929.745 405.009 929.901 390.618 929.916 377.133 C 934.706 377.049 939.497 377.003 944.287 376.996 C 944.291 371.87 944.036 368.413 944.725 363.252 z" fill="rgb(93,116,160)" transform="translate(0,0)"></path>
<path d="M 932.942 415.3 C 932.933 404.194 932.785 392.667 933.259 381.595 C 933.359 379.258 942.193 380.022 943.453 380.287 C 946.032 380.83 941.76 390.99 946.836 388.735 C 947.988 388.208 947.631 381.937 947.661 380.684 C 952.847 381.564 959.156 379.486 960.023 384.083 C 961.134 390.101 970.086 387.906 975.79 388.044 C 975.964 397.102 976.001 406.162 975.903 415.222 L 932.942 415.3 z" fill="rgb(255,255,255)" transform="translate(0,0)"></path>
<path d="M 947.661 380.684 C 950.337 380.059 974.154 379.423 975.274 380.689 C 979.445 385.402 961.495 384.111 960.023 384.083 C 959.156 379.486 952.847 381.564 947.661 380.684 z" fill="rgb(255,255,255)" transform="translate(0,0)"></path>
<path d="M 1147.17 372.656 C 1147.77 372.885 1148.5 372.962 1148.73 373.609 C 1147.69 375.5 1133.51 388.501 1130.29 392.385 C 1136.45 400.659 1141.65 404.706 1148.43 412.116 C 1144.54 413.04 1130.66 396.317 1127.77 392.589 C 1134.05 384.81 1139.68 379.263 1147.17 372.656 z" fill="rgb(159,164,184)" transform="translate(0,0)"></path>
<path d="M 1105.8 377.133 C 1111.34 382.182 1115.98 387.398 1120.88 392.98 L 1102.35 412.333 C 1101.65 413.079 1100.61 413.741 1099.98 412.579 C 1100.35 410.466 1115.67 395.453 1118.29 392.452 C 1114.36 388.117 1110.26 383.928 1106.02 379.892 L 1105.8 377.133 z" fill="rgb(159,164,184)" transform="translate(0,0)"></path>
<path d="M 1106.02 379.892 C 1100.24 374.662 1102.13 372.403 1105.8 377.133 L 1106.02 379.892 z" fill="rgb(224,225,231)" transform="translate(0,0)"></path>
<path d="M 1455.97 68.6532 C 1455.23 53.4507 1457.91 40.4548 1472 31.8864 C 1479.77 27.2296 1489.07 25.8537 1497.86 28.0619 C 1508.4 30.8043 1515.09 37.6874 1520.34 46.8375 C 1584.27 34.0996 1661.11 78.9604 1686.8 137.999 L 1800.85 137.897 C 1814.73 137.888 1848.68 137.042 1860.32 139.215 C 1867.57 140.54 1874.23 144.056 1879.42 149.287 C 1898.46 168.699 1891.43 225.915 1892.24 255.459 C 1896.44 287.773 1893.42 328.127 1894.31 361.297 C 1894.53 369.394 1894.76 396.336 1893.73 402.675 C 1892.6 409.312 1889.84 415.565 1885.7 420.876 C 1869.07 442.537 1843.22 439.252 1818.93 439.231 L 1760.71 439.117 C 1760.7 448.705 1761.29 484.354 1760.04 492.286 L 1759.1 492.245 C 1753.88 493.698 1736.02 493.221 1729.63 493.203 L 1660.71 492.988 C 1651.67 492.962 1630.82 492.425 1622.64 493.9 L 1620.04 491.035 L 1536.69 491.072 C 1527.35 491.073 1502.81 491.57 1494.8 490.272 C 1474 488.556 1431.36 489.956 1409 490.071 L 1409.09 488.492 L 1408.82 417.415 C 1409.88 417.274 1410.77 417.104 1411.81 416.908 C 1409.69 414.462 1410.61 399.586 1410.56 394.77 C 1414.99 394.531 1417.73 394.701 1422.26 394.139 L 1424.56 394.028 C 1432.54 390.77 1440.57 390.98 1448.47 386.151 C 1477.34 368.496 1462.62 328.069 1468.75 304.097 L 1469.13 302.765 L 1468.53 300.724 C 1470.34 285.84 1468.84 245.414 1468.3 228.545 C 1467.38 222.013 1464.43 215.336 1460.72 210.109 C 1443.14 185.355 1407.03 199.311 1382.05 194.434 L 1380.75 194.359 C 1380.47 182.766 1381.95 171.198 1385.13 160.045 C 1395.74 122.138 1421.46 87.8411 1455.97 68.6532 z" fill="rgb(9,8,97)" transform="translate(0,0)"></path>
<path d="M 1455.97 68.6532 C 1455.23 53.4507 1457.91 40.4548 1472 31.8864 C 1479.77 27.2296 1489.07 25.8537 1497.86 28.0619 C 1508.4 30.8043 1515.09 37.6874 1520.34 46.8375 C 1584.27 34.0996 1661.11 78.9604 1686.8 137.999 L 1685.26 138.27 C 1653.32 137.586 1621.3 138.146 1589.26 138.065 C 1566.91 138.008 1546.51 133.127 1528.85 150.825 C 1517.93 161.762 1515.98 172.319 1516.22 187.403 C 1516.34 224.936 1516.95 262.379 1516.97 299.864 L 1517.08 302.337 C 1509.46 302.391 1474.34 301.96 1469.13 302.765 L 1468.53 300.724 C 1470.34 285.84 1468.84 245.414 1468.3 228.545 C 1467.38 222.013 1464.43 215.336 1460.72 210.109 C 1443.14 185.355 1407.03 199.311 1382.05 194.434 L 1380.75 194.359 C 1380.47 182.766 1381.95 171.198 1385.13 160.045 C 1395.74 122.138 1421.46 87.8411 1455.97 68.6532 z" fill="rgb(255,255,255)" transform="translate(0,0)"></path>
<path d="M 1455.97 68.6532 C 1455.23 53.4507 1457.91 40.4548 1472 31.8864 C 1479.77 27.2296 1489.07 25.8537 1497.86 28.0619 C 1508.4 30.8043 1515.09 37.6874 1520.34 46.8375 C 1584.27 34.0996 1661.11 78.9604 1686.8 137.999 L 1685.26 138.27 C 1663.24 96.9259 1631.51 68.1911 1586.63 53.8098 C 1575.52 50.2502 1530.6 42.4774 1521.6 48.703 C 1532.05 98.9784 1474.19 108.509 1456.49 70.3596 C 1411.26 98.1577 1384.07 140.804 1382.05 194.434 L 1380.75 194.359 C 1380.47 182.766 1381.95 171.198 1385.13 160.045 C 1395.74 122.138 1421.46 87.8411 1455.97 68.6532 z" fill="rgb(159,164,184)" transform="translate(0,0)"></path>
<path d="M 1486.46 30.0255 C 1497.42 28.9063 1508.12 33.7902 1514.45 42.797 C 1520.79 51.8039 1521.77 63.5294 1517.01 73.4599 C 1512.25 83.3903 1502.5 89.9774 1491.51 90.6854 C 1474.96 91.752 1460.6 79.3663 1459.22 62.8341 C 1457.84 46.3019 1469.96 31.7116 1486.46 30.0255 z" fill="rgb(9,8,97)" transform="translate(0,0)"></path>
<path d="M 1468.53 300.724 C 1481.95 299.771 1506.01 301.344 1516.97 299.864 L 1517.08 302.337 C 1509.46 302.391 1474.34 301.96 1469.13 302.765 L 1468.53 300.724 z" fill="rgb(224,225,231)" transform="translate(0,0)"></path>
<path d="M 1469.13 302.765 C 1474.34 301.96 1509.46 302.391 1517.08 302.337 C 1517.1 336.725 1515.96 372.104 1518.41 406.294 C 1519.22 417.686 1537.01 434.165 1548.04 435.735 C 1561.29 437.624 1577.2 437.154 1590.8 437.108 C 1615.18 436.897 1639.57 436.833 1663.95 436.915 C 1677.91 440.237 1740.99 438.874 1758.62 439.072 C 1758.79 449.168 1759.31 479.26 1758.01 488.892 L 1758.08 489.868 L 1759.1 492.245 C 1753.88 493.698 1736.02 493.221 1729.63 493.203 L 1660.71 492.988 C 1651.67 492.962 1630.82 492.425 1622.64 493.9 L 1620.04 491.035 L 1536.69 491.072 C 1527.35 491.073 1502.81 491.57 1494.8 490.272 C 1474 488.556 1431.36 489.956 1409 490.071 L 1409.09 488.492 L 1408.82 417.415 C 1409.88 417.274 1410.77 417.104 1411.81 416.908 C 1409.69 414.462 1410.61 399.586 1410.56 394.77 C 1414.99 394.531 1417.73 394.701 1422.26 394.139 L 1424.56 394.028 C 1432.54 390.77 1440.57 390.98 1448.47 386.151 C 1477.34 368.496 1462.62 328.069 1468.75 304.097 L 1469.13 302.765 z" fill="rgb(255,255,255)" transform="translate(0,0)"></path>
<path d="M 1408.82 417.415 C 1409.88 417.274 1410.77 417.104 1411.81 416.908 C 1456.2 416.851 1486.21 446.746 1494.72 488.945 L 1494.8 490.272 C 1474 488.556 1431.36 489.956 1409 490.071 L 1409.09 488.492 L 1408.82 417.415 z" fill="rgb(93,116,160)" transform="translate(0,0)"></path>
<path d="M 1494.72 488.945 C 1581.23 488.647 1671.63 487.458 1758.01 488.892 L 1758.08 489.868 L 1759.1 492.245 C 1753.88 493.698 1736.02 493.221 1729.63 493.203 L 1660.71 492.988 C 1651.67 492.962 1630.82 492.425 1622.64 493.9 L 1620.04 491.035 L 1536.69 491.072 C 1527.35 491.073 1502.81 491.57 1494.8 490.272 L 1494.72 488.945 z" fill="rgb(177,181,196)" transform="translate(0,0)"></path>
<path d="M 1620.04 491.035 C 1663.81 488.823 1713.79 489.902 1758.08 489.868 L 1759.1 492.245 C 1753.88 493.698 1736.02 493.221 1729.63 493.203 L 1660.71 492.988 C 1651.67 492.962 1630.82 492.425 1622.64 493.9 L 1620.04 491.035 z" fill="rgb(224,225,231)" transform="translate(0,0)"></path>
<path d="M 1424.56 394.028 C 1432.54 390.77 1440.57 390.98 1448.47 386.151 C 1477.34 368.496 1462.62 328.069 1468.75 304.097 C 1469.01 314.345 1469.17 324.596 1469.23 334.848 C 1469.41 352.698 1471.48 369.007 1458.09 382.911 C 1451.19 390.073 1441.74 394.204 1431.8 394.395 C 1429.38 394.424 1426.96 394.301 1424.56 394.028 z" fill="rgb(93,116,160)" transform="translate(0,0)"></path>
<path d="M 1892.24 255.459 C 1896.44 287.773 1893.42 328.127 1894.31 361.297 C 1894.53 369.394 1894.76 396.336 1893.73 402.675 C 1892.6 409.312 1889.84 415.565 1885.7 420.876 C 1869.07 442.537 1843.22 439.252 1818.93 439.231 L 1760.71 439.117 C 1760.7 448.705 1761.29 484.354 1760.04 492.286 L 1759.1 492.245 L 1758.08 489.868 L 1758.01 488.892 C 1759.31 479.26 1758.79 449.168 1758.62 439.072 C 1740.99 438.874 1677.91 440.237 1663.95 436.915 C 1672.08 435.72 1676.42 435.466 1684.55 435.236 C 1695.9 353.974 1772.49 292.62 1849.32 276.805 C 1863.09 273.97 1876.82 273.049 1890.8 272.02 C 1890.98 266.474 1891.65 260.977 1892.24 255.459 z" fill="rgb(254,226,13)" transform="translate(0,0)"></path>
<path d="M 1892.24 255.459 C 1896.44 287.773 1893.42 328.127 1894.31 361.297 C 1894.53 369.394 1894.76 396.336 1893.73 402.675 C 1892.6 409.312 1889.84 415.565 1885.7 420.876 C 1869.07 442.537 1843.22 439.252 1818.93 439.231 L 1760.71 439.117 C 1760.7 448.705 1761.29 484.354 1760.04 492.286 L 1759.1 492.245 L 1758.08 489.868 L 1758.01 488.892 C 1759.31 479.26 1758.79 449.168 1758.62 439.072 C 1740.99 438.874 1677.91 440.237 1663.95 436.915 C 1672.08 435.72 1676.42 435.466 1684.55 435.236 L 1798.04 435.614 C 1838.25 435.74 1891.17 444.883 1891.33 388.286 C 1891.36 376.183 1891.18 364.019 1891.09 351.919 L 1890.8 272.02 C 1890.98 266.474 1891.65 260.977 1892.24 255.459 z" fill="rgb(159,164,184)" transform="translate(0,0)"></path>
<path d="M 302.843 607.376 C 297.258 555.319 335.207 563.931 372.831 563.951 L 458.109 564.014 L 521.423 563.983 C 537.219 563.951 557.215 561.145 569.909 571.759 C 575.897 576.726 579.609 583.914 580.193 591.672 C 581.262 605.81 580.059 620.974 580.854 634.889 C 582.717 667.491 582.016 700.097 582.097 732.76 C 582.126 744.272 582.567 770.354 580.517 780.176 C 578.833 797.853 580.039 835.292 580.147 853.742 C 581.409 866.046 581.406 870.08 578.422 882.449 C 577.202 887.508 573.657 892.167 574.823 895.733 C 582.748 904.009 580.384 917.425 580.352 928.5 L 580.297 970.155 C 578.305 969.653 578.051 969.72 576.362 968.646 C 563.011 964.314 498.849 966.017 479.919 966.013 L 355.022 965.914 C 344.832 965.933 312.442 966.817 304.895 965.358 L 303.963 964.991 L 303.295 965.118 L 302.404 965.78 C 291.601 966.346 279.121 965.929 268.141 966.015 L 266.027 965.535 C 266.097 947.383 266.031 929.231 265.829 911.08 C 241.621 911.207 203.937 914.94 189.557 890.072 C 182.981 878.7 184.462 861.268 184.402 848.096 L 184.267 793.05 L 184.246 696.663 C 184.239 680.085 183.982 663.73 184.245 647.044 C 184.428 635.373 189.382 626.255 197.648 618.044 C 213.241 602.555 244.382 606.525 266.115 607.313 L 267.809 606.996 C 277.253 606.979 294.003 606.483 302.843 607.376 z" fill="rgb(9,8,97)" transform="translate(0,0)"></path>
<path d="M 302.843 607.376 C 297.258 555.319 335.207 563.931 372.831 563.951 L 458.109 564.014 L 521.423 563.983 C 537.219 563.951 557.215 561.145 569.909 571.759 C 575.897 576.726 579.609 583.914 580.193 591.672 C 581.262 605.81 580.059 620.974 580.854 634.889 C 582.717 667.491 582.016 700.097 582.097 732.76 C 582.126 744.272 582.567 770.354 580.517 780.176 L 578.961 773.912 C 538.452 771.686 505.447 759.11 474.142 732.973 C 439.284 703.695 417.507 661.752 413.615 616.397 C 413.462 613.059 413.382 612.245 412.632 609.005 C 409.649 606.593 409.157 607.171 405.035 606.542 C 399.777 607.448 377.995 607.118 371.789 607.112 L 304.23 607.078 L 302.843 607.376 z" fill="rgb(254,226,13)" transform="translate(0,0)"></path>
<path d="M 302.843 607.376 C 297.258 555.319 335.207 563.931 372.831 563.951 L 458.109 564.014 L 521.423 563.983 C 537.219 563.951 557.215 561.145 569.909 571.759 C 575.897 576.726 579.609 583.914 580.193 591.672 C 581.262 605.81 580.059 620.974 580.854 634.889 C 582.717 667.491 582.016 700.097 582.097 732.76 C 582.126 744.272 582.567 770.354 580.517 780.176 L 578.961 773.912 C 577.967 731.75 580.394 688.897 577.954 646.894 C 576.913 628.993 558.337 611.137 540.967 609.736 C 517.053 607.806 491.637 608.521 467.531 608.706 C 453.772 608.812 427.554 606.702 414.936 608.946 C 413.111 611.99 413.696 612.544 413.615 616.397 C 413.462 613.059 413.382 612.245 412.632 609.005 C 409.649 606.593 409.157 607.171 405.035 606.542 C 399.777 607.448 377.995 607.118 371.789 607.112 L 304.23 607.078 L 302.843 607.376 z" fill="rgb(255,255,255)" transform="translate(0,0)"></path>
<path d="M 302.843 607.376 C 297.258 555.319 335.207 563.931 372.831 563.951 L 458.109 564.014 L 521.423 563.983 C 537.219 563.951 557.215 561.145 569.909 571.759 C 575.897 576.726 579.609 583.914 580.193 591.672 C 581.262 605.81 580.059 620.974 580.854 634.889 C 582.717 667.491 582.016 700.097 582.097 732.76 C 582.126 744.272 582.567 770.354 580.517 780.176 L 578.961 773.912 C 577.967 731.75 580.394 688.897 577.954 646.894 C 576.913 628.993 558.337 611.137 540.967 609.736 C 517.053 607.806 491.637 608.521 467.531 608.706 C 453.772 608.812 427.554 606.702 414.936 608.946 C 413.111 611.99 413.696 612.544 413.615 616.397 C 413.462 613.059 413.382 612.245 412.632 609.005 C 409.649 606.593 409.157 607.171 405.035 606.542 C 419.277 603.78 534.364 604.529 548.494 607.842 C 562.067 611.024 571.274 621.204 578.333 632.585 C 578.634 624.418 578.861 616.249 579.014 608.078 C 579.707 564.335 561.023 565.704 524.542 565.9 L 476.053 566.162 C 430.234 566.209 384.3 565.85 338.49 566.017 C 328.636 566.054 317.417 567.365 310.76 575.164 C 302.524 584.812 303.933 595.433 304.23 607.078 L 302.843 607.376 z" fill="rgb(159,164,184)" transform="translate(0,0)"></path>
<path d="M 347.118 911.868 L 495.073 911.798 C 509.074 911.809 523.404 911.614 537.372 912.337 C 552.924 913.143 561.104 903.684 572.401 895.707 L 574.213 896.403 L 574.823 895.733 C 582.748 904.009 580.384 917.425 580.352 928.5 L 580.297 970.155 C 578.305 969.653 578.051 969.72 576.362 968.646 C 563.011 964.314 498.849 966.017 479.919 966.013 L 355.022 965.914 C 344.832 965.933 312.442 966.817 304.895 965.358 L 303.963 964.991 L 303.295 965.118 L 302.404 965.78 C 291.601 966.346 279.121 965.929 268.141 966.015 L 266.027 965.535 C 266.097 947.383 266.031 929.231 265.829 911.08 C 291.109 910.461 322.028 910.487 347.407 911.086 L 347.118 911.868 z" fill="rgb(255,255,255)" transform="translate(0,0)"></path>
<path d="M 265.829 911.08 C 291.109 910.461 322.028 910.487 347.407 911.086 L 347.118 911.868 C 339.95 911.868 314.511 911.366 305.55 912.163 C 304.952 912.759 304.354 913.356 303.756 913.952 C 303.962 916.193 304.124 918.437 304.243 920.684 C 303.382 933.808 304.009 951.48 303.963 964.991 L 303.295 965.118 L 302.404 965.78 C 291.601 966.346 279.121 965.929 268.141 966.015 L 266.027 965.535 C 266.097 947.383 266.031 929.231 265.829 911.08 z" fill="rgb(255,255,255)" transform="translate(0,0)"></path>
<path d="M 265.829 911.08 C 291.109 910.461 322.028 910.487 347.407 911.086 L 347.118 911.868 C 339.95 911.868 314.511 911.366 305.55 912.163 C 304.952 912.759 304.354 913.356 303.756 913.952 C 303.962 916.193 304.124 918.437 304.243 920.684 C 303.382 933.808 304.009 951.48 303.963 964.991 L 303.295 965.118 L 302.404 965.78 C 302.888 948.383 302.492 929.056 302.49 911.51 L 268.1 911.51 C 268.236 929.457 267.825 948.223 268.141 966.015 L 266.027 965.535 C 266.097 947.383 266.031 929.231 265.829 911.08 z" fill="rgb(177,181,196)" transform="translate(0,0)"></path>
<path d="M 303.295 965.118 C 304.061 949.369 303.165 930.344 303.323 914.194 L 303.692 913.795 L 303.375 913.338 L 303.53 912.828 C 303.606 913.203 303.681 913.577 303.756 913.952 C 303.962 916.193 304.124 918.437 304.243 920.684 C 303.382 933.808 304.009 951.48 303.963 964.991 L 303.295 965.118 z" fill="rgb(159,164,184)" transform="translate(0,0)"></path>
<path d="M 574.823 895.733 C 582.748 904.009 580.384 917.425 580.352 928.5 L 580.297 970.155 C 578.305 969.653 578.051 969.72 576.362 968.646 C 579.871 966.08 577.618 911.922 577.771 904.594 C 577.807 902.893 575.063 898.526 574.213 896.403 L 574.823 895.733 z" fill="rgb(177,181,196)" transform="translate(0,0)"></path>
<path d="M 304.243 920.684 C 305.22 931.172 305.298 954.661 304.895 965.358 L 303.963 964.991 C 304.009 951.48 303.382 933.808 304.243 920.684 z" fill="rgb(224,225,231)" transform="translate(0,0)"></path>
<path d="M 580.147 853.742 C 581.409 866.046 581.406 870.08 578.422 882.449 C 577.202 887.508 573.657 892.167 574.823 895.733 L 574.213 896.403 L 572.401 895.707 C 561.104 903.684 552.924 913.143 537.372 912.337 C 523.404 911.614 509.074 911.809 495.073 911.798 L 347.118 911.868 L 347.407 911.086 C 390.533 909.65 435.004 912.111 478.238 910.985 C 532.847 909.561 573.857 923.214 580.147 853.742 z" fill="rgb(93,116,160)" transform="translate(0,0)"></path>
<path d="M 1760.04 492.286 C 1767.22 493.918 1774.68 492.605 1781.71 493.204 C 1808.65 495.499 1845.87 486.898 1870.48 498.028 C 1893.52 508.449 1890.2 536.175 1890.2 556.265 L 1890.22 608.216 C 1890.25 633.71 1897.74 690.716 1873.37 704.376 C 1852.79 715.913 1813.1 710.453 1788.18 711.395 L 1788.29 781.411 C 1788.3 794.142 1789.27 813.324 1786.87 825.437 C 1781.31 853.492 1739.23 847.187 1718.9 847.137 L 1644.91 847.1 L 1574.26 847.256 C 1560.27 847.281 1532.5 850.318 1521.53 839.524 C 1515.05 833.142 1512.36 823.022 1512.3 813.885 C 1511.98 767.154 1512.18 720.374 1512.09 673.619 L 1512.02 620.523 C 1512.03 586.297 1509.67 562.665 1553.38 563.947 C 1565.81 564.311 1580.37 564.283 1592.87 564.079 C 1592.6 534.097 1587.67 505.146 1622.64 493.9 C 1630.82 492.425 1651.67 492.962 1660.71 492.988 L 1729.63 493.203 C 1736.02 493.221 1753.88 493.698 1759.1 492.245 L 1760.04 492.286 z" fill="rgb(93,116,160)" transform="translate(0,0)"></path>
<path d="M 1592.87 564.079 L 1592.24 565.931 C 1593.46 575.084 1592.9 587.281 1592.88 596.776 L 1592.63 648.698 C 1592.5 668.597 1589.82 689.435 1607.89 702.851 C 1624.29 715.02 1654.7 711.113 1675.01 711.115 L 1776.48 711.177 C 1780.77 710.932 1783.96 710.501 1788.18 711.395 L 1788.29 781.411 C 1788.3 794.142 1789.27 813.324 1786.87 825.437 C 1781.31 853.492 1739.23 847.187 1718.9 847.137 L 1644.91 847.1 L 1574.26 847.256 C 1560.27 847.281 1532.5 850.318 1521.53 839.524 C 1515.05 833.142 1512.36 823.022 1512.3 813.885 C 1511.98 767.154 1512.18 720.374 1512.09 673.619 L 1512.02 620.523 C 1512.03 586.297 1509.67 562.665 1553.38 563.947 C 1565.81 564.311 1580.37 564.283 1592.87 564.079 z" fill="rgb(255,255,255)" transform="translate(0,0)"></path>
<path d="M 1592.87 564.079 L 1592.24 565.931 C 1580.67 566.466 1565.62 566.271 1554.12 565.893 C 1512.21 564.514 1514.28 584.53 1514.18 618.018 L 1514.13 672.377 L 1514.2 758.737 C 1514.19 778.36 1514.01 797.966 1514.72 817.574 C 1515.05 826.6 1516.98 832.351 1523.67 838.555 C 1534.26 848.366 1556.97 845.46 1570.87 845.355 L 1626.98 845.092 L 1711.97 845.059 C 1727.41 845.057 1742.65 844.963 1758.11 844.75 C 1769.03 844.6 1783.97 836.829 1784.91 824.845 C 1787.41 793.067 1785.43 760.32 1786.2 728.406 C 1786.3 723.072 1786.19 718.1 1785.73 712.926 C 1782.66 711.266 1780.01 711.426 1776.48 711.177 C 1780.77 710.932 1783.96 710.501 1788.18 711.395 L 1788.29 781.411 C 1788.3 794.142 1789.27 813.324 1786.87 825.437 C 1781.31 853.492 1739.23 847.187 1718.9 847.137 L 1644.91 847.1 L 1574.26 847.256 C 1560.27 847.281 1532.5 850.318 1521.53 839.524 C 1515.05 833.142 1512.36 823.022 1512.3 813.885 C 1511.98 767.154 1512.18 720.374 1512.09 673.619 L 1512.02 620.523 C 1512.03 586.297 1509.67 562.665 1553.38 563.947 C 1565.81 564.311 1580.37 564.283 1592.87 564.079 z" fill="rgb(159,164,184)" transform="translate(0,0)"></path>
<path d="M 1668.29 548.994 C 1680.88 546.517 1693.13 554.636 1695.74 567.201 C 1698.36 579.766 1690.37 592.096 1677.84 594.85 C 1669.61 596.659 1661.04 593.905 1655.4 587.638 C 1649.76 581.371 1647.93 572.558 1650.59 564.562 C 1653.26 556.566 1660.02 550.62 1668.29 548.994 z" fill="rgb(255,255,255)" transform="translate(0,0)"></path>
<path d="M 933.617 564.256 C 947.745 563.56 965.262 564.044 979.665 564.073 L 1062.33 564.215 C 1081.8 564.217 1101.28 564.121 1120.75 563.928 C 1135.3 563.808 1156.86 561.489 1169.34 568.303 C 1187.61 578.277 1183.66 605.228 1183.65 622.739 L 1183.54 693.596 L 1183.61 776.074 C 1183.67 791.028 1184.12 806.51 1183.42 821.424 C 1183.23 825.539 1181.23 830.645 1178.85 834.071 C 1173.11 842.34 1166.58 845.141 1157.23 846.957 C 1115.04 848.301 1066.94 847.051 1024.24 847.12 L 966.435 847.251 C 939.874 847.317 908.666 852.967 907.03 815.547 C 906.681 807.541 906.872 799.483 906.873 791.47 L 906.892 732.829 L 906.976 644.868 C 906.998 627.717 906.785 610.679 907.644 593.54 C 908.458 577.298 917.979 567.418 933.617 564.256 z" fill="rgb(159,164,184)" transform="translate(0,0)"></path>
<path d="M 932.92 566.266 C 1006.36 564.258 1081.2 567.314 1154.78 566.065 C 1164.19 565.906 1178.42 574.336 1179.85 584.015 C 1183.38 607.984 1181.82 634.656 1181.6 659.109 L 1181.48 734.867 C 1181.48 759.122 1181.48 783.501 1181.76 807.748 C 1181.99 827.485 1180.51 839.269 1159.07 844.816 C 1086.49 847.729 1011.55 843.279 938.693 845.345 C 902.359 846.376 909.037 805.16 909.1 780.23 L 909.259 711.161 L 909.132 636.967 C 909.118 623.383 909.013 609.883 909.379 596.303 C 909.814 580.184 917.136 570.046 932.92 566.266 z" fill="rgb(255,255,255)" transform="translate(0,0)"></path>
<path d="M 630.794 564.025 C 667.041 562.298 705.317 563.962 741.845 563.972 C 778.469 563.983 815.722 562.295 852.265 564.073 C 855.814 564.246 859.033 564.676 862.381 565.981 C 870.839 569.279 877.248 575.345 880.556 583.836 C 884.734 594.555 883.756 790.225 882.456 814.675 C 882.205 819.401 881.965 824.334 880.008 828.717 C 875.597 838.593 868.945 842.643 859.23 846.382 C 852.854 847.773 787.147 847.137 775.828 847.124 L 682.837 847.16 C 666.476 847.177 649.893 847.803 633.56 846.994 C 629.614 846.798 626.528 845.905 622.932 844.288 C 615.169 840.797 610.501 835.257 607.847 827.239 C 604.732 817.83 605.198 618.01 606.542 595.644 C 606.884 589.943 607.161 584.471 609.949 579.338 C 614.541 570.882 621.822 566.62 630.794 564.025 z" fill="rgb(159,164,184)" transform="translate(0,0)"></path>
<path d="M 630.01 566.279 C 672.318 565.062 714.965 566.05 757.309 566.026 C 787.751 566.01 819.054 564.496 849.381 566.224 C 854.191 566.498 859.978 567.029 864.507 568.808 C 870.442 571.138 876.094 578.537 878.496 584.359 C 882.646 594.417 881.59 796.199 880.263 818.447 C 880.067 821.749 879.601 824.821 878.247 827.865 C 874.106 837.174 867.558 841.136 858.5 844.558 C 849.904 845.505 834.274 845.106 825.168 845.098 L 767.443 845.026 L 689.369 845.066 C 672.664 845.177 655.828 845.823 639.139 845.246 C 634.173 845.074 628.6 845.034 624.033 842.832 C 617.64 839.749 611.992 834.409 609.816 827.493 C 606.771 817.814 607.148 612.769 608.798 590.609 C 609.07 586.954 609.829 583.807 611.588 580.56 C 615.458 573.412 622.235 568.443 630.01 566.279 z" fill="rgb(255,255,255)" transform="translate(0,0)"></path>
<path d="M 1235.86 564.197 C 1248.8 563.555 1265.16 564.054 1278.48 564.056 L 1358.58 564.032 L 1421.24 564.024 C 1440.96 564.024 1478.84 558.578 1484.98 585.746 C 1487.53 597.03 1486.35 616.494 1486.32 628.504 L 1486.11 700.879 L 1486.28 777.743 C 1486.31 790.837 1486.53 803.973 1486.12 817.056 C 1485.6 833.664 1475.83 843.447 1460.24 847.001 C 1414.26 848.095 1367.58 846.393 1321.52 847.001 C 1293.95 847.365 1266.22 847.181 1238.65 846.988 C 1225.98 846.9 1213.73 836.586 1210.79 824.341 C 1209.13 794.742 1209.93 764.202 1209.92 734.449 L 1209.9 641.489 C 1209.89 624.768 1209.55 607.787 1210.34 591.092 C 1211.04 576.451 1222.1 567.032 1235.86 564.197 z" fill="rgb(159,164,184)" transform="translate(0,0)"></path>
<path d="M 1234.69 566.256 C 1307.38 564.626 1381.18 566.706 1453.94 566.227 C 1489.03 565.995 1484.19 596.767 1484.07 621.444 C 1484 636.25 1484.04 651.723 1484.04 666.773 L 1484.05 763.847 C 1484.05 781.675 1484.1 799.427 1483.78 817.254 C 1483.5 832.888 1476.08 840.466 1461.6 844.819 C 1420.24 846.489 1369.82 845.107 1327.84 845.105 L 1270.88 845.203 C 1252.75 845.266 1219.01 850.397 1213.24 825.391 C 1210.83 814.928 1211.89 797.18 1211.91 785.994 L 1212.07 717.841 L 1211.94 634.821 C 1211.93 620.096 1211.49 604.815 1212.29 590.143 C 1212.98 577.581 1223.12 568.952 1234.69 566.256 z" fill="rgb(255,255,255)" transform="translate(0,0)"></path>
<path d="M 1234.06 880.304 C 1243.08 879.582 1258.58 880.111 1268.35 880.121 L 1332.97 880.109 L 1411.99 879.916 C 1427 879.868 1442.25 879.293 1457.24 880.076 C 1461.14 880.28 1464.37 880.757 1467.99 882.357 C 1475.91 885.866 1481.54 892.395 1484.47 900.48 C 1487.6 909.088 1486.99 1106.57 1485.96 1130.03 C 1485.75 1134.84 1485.7 1140.81 1483.35 1145.14 C 1478.93 1153.3 1471.85 1158.53 1463 1160.95 C 1454.71 1162.28 1436.32 1161.88 1427.57 1161.87 L 1369.05 1161.81 L 1288.85 1161.96 C 1272.82 1162.03 1256.54 1162.66 1240.53 1161.78 C 1235.3 1161.5 1230.32 1160.71 1225.61 1158.28 C 1218.43 1154.58 1213.61 1149.32 1211.17 1141.53 C 1208.55 1133.17 1208.89 929.728 1210.21 908.036 C 1210.49 903.28 1211.19 899.395 1213.52 895.18 C 1218.19 886.711 1225.22 882.972 1234.06 880.304 z" fill="rgb(159,164,184)" transform="translate(0,0)"></path>
<path d="M 1234.85 882.175 C 1306.9 879.59 1381.41 883.769 1453.69 882.169 C 1489.53 881.376 1483.99 915.475 1483.98 940.397 L 1483.91 1009.46 C 1483.9 1050.12 1484.19 1090.78 1483.8 1131.43 C 1483.65 1147.77 1476.3 1155.2 1461.36 1159.75 C 1387.78 1162.5 1311 1158.22 1237.18 1159.75 C 1217.87 1160.14 1211.84 1142.57 1211.91 1126.24 C 1212.23 1052.88 1211.63 979.365 1212.08 906.006 C 1212.16 893.211 1223.4 884.819 1234.85 882.175 z" fill="rgb(255,255,255)" transform="translate(0,0)"></path>
<path d="M 1537.75 880.125 C 1611.11 878.144 1686.1 881.308 1759.59 880.333 C 1769.3 880.204 1779.12 886.53 1784.17 894.6 C 1787.03 899.184 1787.78 907.901 1788.15 913.251 C 1788.41 949.888 1788.06 986.538 1788.1 1023.18 L 1788.26 1093.84 C 1788.29 1106.71 1788.46 1119.52 1788.07 1132.38 C 1787.59 1147.95 1778.04 1157.24 1763.76 1161.37 C 1754.08 1162.37 1735.96 1161.94 1725.62 1161.93 L 1659.36 1161.86 L 1585.82 1161.98 C 1526.64 1162.25 1508.11 1168.76 1512.01 1100.17 C 1512.91 1084.19 1512.38 1062.99 1512.41 1046.6 L 1512.2 958.351 C 1512.17 943.113 1512.24 927.923 1512.39 912.69 C 1512.56 895.179 1520.4 884.228 1537.75 880.125 z" fill="rgb(159,164,184)" transform="translate(0,0)"></path>
<path d="M 1536.76 882.183 C 1559.74 881.893 1761.06 880.445 1768.13 883.69 C 1775.4 887.028 1780.89 891.275 1783.8 898.898 C 1785.05 902.168 1785.63 905.478 1785.78 908.966 C 1787.4 945.848 1786 983.208 1786.02 1020.16 C 1786.05 1057 1787.51 1094.4 1785.93 1131.15 C 1785.76 1135.15 1785.76 1140.37 1783.95 1144.01 C 1779.6 1152.75 1772.28 1156.93 1763.38 1159.73 C 1694.6 1161.16 1624.62 1158.72 1556.46 1160.08 C 1508.55 1161.03 1513.87 1138.51 1514.12 1100.27 C 1514.55 1035.93 1513.56 970.896 1514.84 906.513 C 1515.09 893.911 1525.53 885.239 1536.76 882.183 z" fill="rgb(255,255,255)" transform="translate(0,0)"></path>
<path d="M 89.0601 912.902 C 123.778 907.659 156.252 931.322 161.899 965.977 C 167.545 1000.63 144.261 1033.38 109.675 1039.43 C 86.9408 1043.4 63.8249 1034.85 49.1525 1017.04 C 34.4802 999.223 30.5167 974.896 38.7755 953.346 C 47.0342 931.795 66.2401 916.348 89.0601 912.902 z" fill="rgb(9,8,97)" transform="translate(0,0)"></path>
<path d="M 1010.47 1351.76 C 1036.16 1347.66 1060.38 1364.98 1064.8 1390.62 C 1069.22 1416.26 1052.2 1440.69 1026.61 1445.43 C 1009.78 1448.55 992.563 1442.37 981.552 1429.26 C 970.542 1416.15 967.435 1398.12 973.42 1382.08 C 979.405 1366.04 993.557 1354.45 1010.47 1351.76 z" fill="rgb(9,8,97)" transform="translate(0,0)"></path>
<path d="M 1934.43 739.112 C 1956.15 734.519 1977.48 748.375 1982.12 770.081 C 1986.75 791.787 1972.93 813.146 1951.23 817.819 C 1929.48 822.504 1908.05 808.643 1903.41 786.881 C 1898.76 765.118 1912.66 743.717 1934.43 739.112 z" fill="rgb(159,164,184)" transform="translate(0,0)"></path>
<path d="M 1934.7 741.148 C 1955.2 736.726 1975.43 749.64 1980.05 770.094 C 1984.67 790.548 1971.95 810.905 1951.54 815.722 C 1930.85 820.605 1910.16 807.673 1905.47 786.938 C 1900.79 766.204 1913.92 745.631 1934.7 741.148 z" fill="rgb(255,255,255)" transform="translate(0,0)"></path>
<path d="M 1937.17 758.165 C 1947.48 755.167 1958.29 761.024 1961.41 771.303 C 1964.53 781.582 1958.8 792.457 1948.56 795.698 C 1941.83 797.829 1934.47 796.175 1929.29 791.368 C 1924.12 786.561 1921.93 779.344 1923.56 772.472 C 1925.19 765.601 1930.39 760.136 1937.17 758.165 z" fill="rgb(93,116,160)" transform="translate(0,0)"></path>
<path d="M 1970.4 430.109 C 1988.12 426.007 2005.82 436.996 2010 454.694 C 2014.19 472.392 2003.28 490.144 1985.6 494.409 C 1967.81 498.702 1949.91 487.708 1945.7 469.894 C 1941.49 452.08 1952.57 434.238 1970.4 430.109 z" fill="rgb(159,164,184)" transform="translate(0,0)"></path>
<path d="M 1969.76 432.236 C 1986.34 427.825 2003.35 437.706 2007.74 454.295 C 2012.12 470.883 2002.22 487.883 1985.62 492.243 C 1969.06 496.594 1952.11 486.713 1947.73 470.16 C 1943.36 453.608 1953.21 436.638 1969.76 432.236 z" fill="rgb(255,255,255)" transform="translate(0,0)"></path>
<path d="M 1976.65 462.691 C 1977.74 461.793 1979.24 461.561 1980.56 462.084 C 1981.88 462.607 1982.81 463.804 1982.99 465.21 C 1983.17 466.616 1982.57 468.01 1981.43 468.851 C 1979.73 470.107 1977.34 469.776 1976.04 468.105 C 1974.74 466.434 1975.01 464.032 1976.65 462.691 z" fill="rgb(9,8,97)" transform="translate(0,0)"></path>
<path d="M 81.2503 564.457 C 98.7027 561.248 115.437 572.841 118.566 590.308 C 121.694 607.775 110.024 624.456 92.5433 627.504 C 75.1755 630.533 58.6259 618.955 55.5175 601.601 C 52.4092 584.247 63.9111 567.645 81.2503 564.457 z" fill="rgb(93,116,160)" transform="translate(0,0)"></path>
<path d="M 80.9936 566.549 C 97.2756 563.259 113.125 573.847 116.321 590.148 C 119.516 606.448 108.838 622.237 92.5194 625.339 C 76.3326 628.416 60.6995 617.843 57.5295 601.674 C 54.3596 585.505 64.8431 569.811 80.9936 566.549 z" fill="rgb(255,255,255)" transform="translate(0,0)"></path>
<path d="M 86.254 592.498 C 88.1363 591.639 90.3629 592.331 91.4276 594.105 C 92.4923 595.879 92.0558 598.169 90.4134 599.427 C 89.1726 600.377 87.4971 600.532 86.1029 599.826 C 84.7088 599.119 83.8427 597.677 83.8749 596.114 C 83.9071 594.552 84.8319 593.146 86.254 592.498 z" fill="rgb(9,8,97)" transform="translate(0,0)"></path>
<path d="M 1105.65 1222.13 C 1117.72 1218.59 1130.38 1225.52 1133.91 1237.59 C 1137.45 1249.67 1130.52 1262.32 1118.44 1265.85 C 1106.37 1269.38 1093.73 1262.45 1090.2 1250.38 C 1086.67 1238.32 1093.58 1225.67 1105.65 1222.13 z" fill="rgb(159,164,184)" transform="translate(0,0)"></path>
<path d="M 1105.37 1224.35 C 1112.68 1221.89 1120.76 1223.68 1126.34 1229.01 C 1131.93 1234.34 1134.1 1242.32 1131.99 1249.74 C 1130.16 1256.17 1125.34 1261.33 1119.05 1263.59 C 1112.02 1266.13 1104.17 1264.69 1098.49 1259.83 C 1092.81 1254.97 1090.18 1247.43 1091.6 1240.09 C 1093.03 1232.75 1098.28 1226.74 1105.37 1224.35 z" fill="rgb(255,255,255)" transform="translate(0,0)"></path>
<path d="M 285.456 1334.09 C 293.624 1333.01 301.738 1336.43 306.67 1343.03 C 311.602 1349.63 312.582 1358.38 309.233 1365.91 C 305.884 1373.44 298.728 1378.57 290.524 1379.32 C 278.183 1380.46 267.202 1371.51 265.822 1359.19 C 264.442 1346.88 273.17 1335.72 285.456 1334.09 z" fill="rgb(159,164,184)" transform="translate(0,0)"></path>
<path d="M 284.257 1336.25 C 295.489 1334 306.423 1341.27 308.702 1352.49 C 310.982 1363.72 303.747 1374.67 292.528 1376.98 C 281.266 1379.3 270.263 1372.03 267.975 1360.76 C 265.687 1349.5 272.984 1338.51 284.257 1336.25 z" fill="rgb(255,255,255)" transform="translate(0,0)"></path>
<path d="M 2025.08 273.346 C 2050.65 277.317 2050.74 304.033 2028.9 309.427 C 2024.86 309.176 2019.17 309.264 2016.13 306.712 C 2001.38 294.318 2007.54 276.912 2025.08 273.346 z" fill="rgb(68,90,135)" transform="translate(0,0)"></path>
<path d="M 1128.51 166.548 C 1135.98 163.67 1144.37 167.385 1147.27 174.852 C 1150.16 182.319 1146.47 190.719 1139.01 193.63 C 1131.52 196.55 1123.09 192.839 1120.19 185.349 C 1117.28 177.859 1121.01 169.435 1128.51 166.548 z" fill="rgb(159,164,184)" transform="translate(0,0)"></path>
<path d="M 1123.96 172.058 C 1128.18 166.937 1135.65 165.968 1141.04 169.841 C 1146.43 173.715 1147.88 181.104 1144.37 186.734 C 1140.86 192.365 1133.59 194.308 1127.74 191.175 C 1121.89 188.043 1119.47 180.91 1122.21 174.867 C 1122.82 173.868 1123.28 173.02 1123.96 172.058 z" fill="rgb(255,255,255)" transform="translate(0,0)"></path>
<path d="M 1910.88 691.502 C 1913.05 689.936 1916.08 690.425 1917.64 692.594 C 1919.2 694.763 1918.71 697.788 1916.54 699.348 C 1914.37 700.906 1911.35 700.414 1909.79 698.249 C 1908.23 696.084 1908.72 693.065 1910.88 691.502 z" fill="rgb(9,8,97)" transform="translate(0,0)"></path>
<path d="M 1015.13 1231.65 C 1017.27 1230.09 1020.28 1230.54 1021.86 1232.67 C 1023.45 1234.8 1023.02 1237.81 1020.9 1239.41 C 1018.76 1241.03 1015.71 1240.59 1014.11 1238.44 C 1012.5 1236.29 1012.96 1233.24 1015.13 1231.65 z" fill="rgb(9,8,97)" transform="translate(0,0)"></path>
<path d="M 126.583 816.566 C 127.994 815.627 129.803 815.527 131.308 816.306 C 132.814 817.084 133.779 818.618 133.828 820.312 C 133.878 822.006 133.004 823.593 131.546 824.458 C 129.372 825.748 126.566 825.071 125.22 822.931 C 123.874 820.79 124.478 817.968 126.583 816.566 z" fill="rgb(9,8,97)" transform="translate(0,0)"></path>
<path d="M 1980.19 394.63 C 1984.69 396.94 1986.86 399.955 1989.13 404.508 L 1990.73 407.492 C 1985.55 404.565 1983.08 399.751 1980.19 394.63 z" fill="rgb(224,225,231)" transform="translate(0,0)"></path>
<path d="M 1984.68 551.871 C 1985.27 555.613 1978.59 560.435 1975.81 562.873 C 1975.18 558.739 1981.55 554.314 1984.68 551.871 z" fill="rgb(224,225,231)" transform="translate(0,0)"></path>
<path d="M 1965.74 568.986 C 1968.52 571.222 1958.96 576.365 1957.2 577.169 C 1954.67 574.685 1963.41 570.681 1965.74 568.986 z" fill="rgb(224,225,231)" transform="translate(0,0)"></path>
<path d="M 2013.31 456.766 C 2014.24 462.491 2016.99 468.828 2014.02 474.494 C 2013.42 469.151 2012.07 461.91 2013.31 456.766 z" fill="rgb(224,225,231)" transform="translate(0,0)"></path>
<path d="M 1963.62 378.993 C 1967.45 380.867 1971.53 384.059 1974.16 387.405 L 1976.36 390.233 C 1972.32 388.567 1965.99 382.476 1963.62 378.993 z" fill="rgb(224,225,231)" transform="translate(0,0)"></path>
<path d="M 1896.87 351.273 C 1902.25 350.88 1905.75 351.577 1910.92 353.628 C 1905.21 354.36 1901.86 354.418 1896.87 351.273 z" fill="rgb(224,225,231)" transform="translate(0,0)"></path>
<path d="M 1944.67 582.949 C 1945.6 582.838 1945.8 582.677 1946.56 583.068 C 1947.57 584.89 1938.47 587.756 1937.23 588.225 C 1928.91 589.993 1945.32 582.627 1944.67 582.949 z" fill="rgb(224,225,231)" transform="translate(0,0)"></path>
<path d="M 1922.52 592.061 C 1928.58 593.137 1913.68 596.672 1913.54 596.717 C 1913.18 596.623 1912.82 596.528 1912.46 596.433 C 1913.02 594.279 1920.3 592.793 1922.52 592.061 z" fill="rgb(224,225,231)" transform="translate(0,0)"></path>
<path d="M 2013.49 485.671 C 2014.91 490.947 2014.31 494.012 2012.34 498.717 C 2010.86 495.119 2012.51 489.417 2013.49 485.671 z" fill="rgb(224,225,231)" transform="translate(0,0)"></path>
<path d="M 2008.12 437.752 C 2010.62 440.807 2010.12 443.72 2011.06 447.593 C 2007.46 445.178 2007.91 441.82 2008.12 437.752 z" fill="rgb(224,225,231)" transform="translate(0,0)"></path>
<path d="M 1994.27 538.169 C 1994.93 538.388 1995.09 538.292 1995.36 538.725 C 1995.27 540.328 1992.81 542.91 1991.79 544.089 C 1991.16 541.651 1992.39 539.772 1994.27 538.169 z" fill="rgb(224,225,231)" transform="translate(0,0)"></path>
<path d="M 2007.88 512.313 C 2009.44 513.335 2008.49 513.958 2007.54 515.546 C 2005.08 514.579 2006.1 513.831 2007.88 512.313 z" fill="rgb(224,225,231)" transform="translate(0,0)"></path>
<metadata><recraft-signature>{"signed_by": "recraft", "signature_b64": "jh2xYHTq9vEVvLmClnJeKNo9OBmDLjRc7XH4ONv/SNx8fkqYU4puj4dypFGjL8VFKZ9FJE59lsjnAtfW0j6sDw==", "signing_algo": "Ed25519", "generation_timestamp": 1776966883, "identifier": "deaf55cd-a3c9-4ef4-9e53-1f5752918702"}</recraft-signature></metadata></svg>